<svg width="16" height="16" viewBox="0 0 16 16" xmlns="http://www.w3.org/2000/svg"><path fill-rule="evenodd" clip-rule="evenodd" d="M4.255 6.052a3.75 3.75 0 0 1 7.349-.843l.152.528.55.014a2.25 2.25 0 0 1 1.256 4.077.75.75 0 0 0 .876 1.218 3.75 3.75 0 0 0-1.561-6.744 5.251 5.251 0 0 0-10.037.974 3.25 3.25 0 0 0-1.216 6.039.75.75 0 1 0 .752-1.299A1.749 1.749 0 0 1 3.43 6.76l.784.08.041-.787ZM8 9.838l-1.732-.99L8 7.858l1.732.99L8 9.838Zm.75 1.299 1.75-1v1.98l-1.75 1v-1.98Zm-1.5 0-1.75-1v1.98l1.75 1v-1.98Zm.254-4.723a1 1 0 0 1 .992 0l3 1.714a1 1 0 0 1 .504.868v3.41a1 1 0 0 1-.504.87l-3 1.713a1 1 0 0 1-.992 0l-3-1.714A1 1 0 0 1 4 12.407v-3.41a1 1 0 0 1 .504-.87l3-1.713Z" fill="#000"/></svg>